<svg viewBox="0 0 562 285" xmlns="http://www.w3.org/2000/svg"><rect x="0" y="0" width="562" height="285" fill="#f6f3ea"/><g transform="translate(0.000000,285.000000) scale(0.100000,-0.100000)"><path d="M35 1425 c0 -786 1 -1110 2 -718 2 391 2 1035 0 1430 -1 395 -2 75
-2 -712z" fill="#1b1812" fill-rule="evenodd"/><path d="M70 1425 c0 -1350 1 -1425 18 -1425 16 0 17 74 17 1412 l0 1413 1390
0 1390 0 5 -94 c3 -63 9 -96 18 -99 9 -3 12 20 12 92 0 91 1 96 23 101 12 3
607 4 1322 3 l1300 -3 2 -615 c1 -338 2 -974 3 -1412 0 -525 3 -798 10 -798 7
0 10 482 10 1425 l0 1425 -2760 0 -2760 0 0 -1425z" fill="#1b1812" fill-rule="evenodd"/><path d="M2825 2623 c-41 -8 -64 -27 -79 -65 -20 -48 -20 -53 0 -72 23 -24 70
-20 88 6 24 34 19 56 -16 78 -27 16 -29 20 -12 20 24 0 61 25 48 32 -5 2 -18
3 -29 1z m-8 -89 c7 -19 -20 -49 -36 -40 -12 8 -15 39 -4 49 12 12 33 7 40 -9z" fill="#1b1812" fill-rule="evenodd"/><path d="M3175 2619 c-4 -6 2 -13 14 -16 30 -8 26 -19 -9 -26 -68 -14 -77
-107 -10 -107 46 0 70 31 70 90 0 38 -4 52 -19 60 -25 13 -38 13 -46 -1z m35
-89 c0 -24 -32 -44 -48 -28 -16 16 4 48 28 48 13 0 20 -7 20 -20z" fill="#1b1812" fill-rule="evenodd"/><path d="M2597 2602 c-53 -59 -38 -132 28 -132 50 0 89 37 88 84 -1 20 -7 43
-13 51 -18 21 -83 19 -103 -3z m83 -27 c16 -19 4 -52 -26 -72 -24 -15 -26 -15
-44 3 -17 17 -17 22 -5 52 15 35 52 44 75 17z" fill="#1b1812" fill-rule="evenodd"/><path d="M2880 2569 c0 -6 5 -19 11 -30 8 -16 6 -23 -13 -39 -27 -22 -16 -40
14 -21 14 9 23 10 31 2 6 -6 17 -11 24 -11 10 0 10 5 1 25 -10 21 -8 29 10 48
12 13 22 26 22 30 0 13 -23 7 -43 -10 -18 -17 -19 -17 -28 0 -11 19 -29 23
-29 6z" fill="#1b1812" fill-rule="evenodd"/><path d="M3012 2564 c-27 -18 -31 -78 -6 -88 67 -26 126 42 76 87 -23 21 -41
21 -70 1z m55 -30 c7 -19 -20 -49 -36 -40 -12 8 -15 39 -4 49 12 12 33 7 40
-9z" fill="#1b1812" fill-rule="evenodd"/><path d="M1140 2530 c0 -5 8 -14 18 -19 10 -5 24 -21 32 -35 13 -25 30 -35 30
-18 0 9 -67 82 -75 82 -3 0 -5 -4 -5 -10z" fill="#1b1812" fill-rule="evenodd"/><path d="M4263 2473 c9 -2 23 -2 30 0 6 3 -1 5 -18 5 -16 0 -22 -2 -12 -5z" fill="#1b1812" fill-rule="evenodd"/><path d="M1096 2427 c-10 -15 -25 -27 -33 -27 -21 0 -12 -34 11 -38 12 -3 17
1 13 10 -2 7 4 23 15 35 11 12 18 27 16 35 -3 8 -11 3 -22 -15z" fill="#1b1812" fill-rule="evenodd"/><path d="M5011 2336 c-19 -7 -36 -17 -38 -23 -3 -7 20 -30 48 -53 48 -37 57
-41 92 -36 21 4 46 10 55 15 9 5 28 13 41 18 24 9 24 10 -31 51 -60 46 -100
52 -167 28z m123 -27 c35 -28 33 -36 -13 -50 -35 -10 -42 -9 -70 10 -37 27
-38 34 -8 49 34 17 62 14 91 -9z" fill="#1b1812" fill-rule="evenodd"/><path d="M2890 1165 c0 -1103 1 -1165 18 -1165 16 0 17 61 14 1165 -2 1025 -4
1165 -17 1165 -13 0 -15 -139 -15 -1165z" fill="#1b1812" fill-rule="evenodd"/><path d="M1189 2313 c-14 -3 -15 -9 -6 -34 9 -22 18 -29 39 -29 15 0 28 2 28
5 0 13 -31 65 -38 64 -4 -1 -14 -3 -23 -6z" fill="#1b1812" fill-rule="evenodd"/><path d="M950 2285 c-28 -30 -38 -31 -56 -7 -11 14 -13 14 -14 2 0 -19 57 -90
73 -90 8 0 7 4 -1 12 -19 19 -14 42 13 68 25 24 32 40 17 40 -5 0 -19 -11 -32
-25z" fill="#1b1812" fill-rule="evenodd"/><path d="M4893 2293 c9 -2 23 -2 30 0 6 3 -1 5 -18 5 -16 0 -22 -2 -12 -5z" fill="#1b1812" fill-rule="evenodd"/><path d="M5280 2230 c0 -15 33 -80 41 -80 12 0 49 64 41 71 -12 11 -82 18 -82
9z" fill="#1b1812" fill-rule="evenodd"/><path d="M3820 2106 c0 -31 3 -56 7 -56 4 0 24 12 46 27 l38 26 -23 23 c-13
12 -33 25 -45 29 -22 6 -23 4 -23 -49z" fill="#1b1812" fill-rule="evenodd"/><path d="M3456 1969 c-7 -39 -8 -79 -1 -79 3 0 24 9 47 21 l40 21 -33 34 c-18
19 -36 34 -40 34 -3 0 -9 -14 -13 -31z" fill="#1b1812" fill-rule="evenodd"/><path d="M3263 1953 c9 -2 23 -2 30 0 6 3 -1 5 -18 5 -16 0 -22 -2 -12 -5z" fill="#1b1812" fill-rule="evenodd"/><path d="M3383 1953 c9 -2 23 -2 30 0 6 3 -1 5 -18 5 -16 0 -22 -2 -12 -5z" fill="#1b1812" fill-rule="evenodd"/><path d="M1473 1920 c-18 -11 -33 -24 -33 -29 0 -12 59 -55 66 -48 3 3 4 26 2
51 l-3 46 -32 -20z" fill="#1b1812" fill-rule="evenodd"/><path d="M2230 1810 c-7 -16 -18 -35 -26 -41 -21 -17 -17 -26 17 -38 18 -6 33
-11 34 -11 1 0 2 27 1 60 -1 33 -4 60 -7 60 -4 0 -12 -13 -19 -30z" fill="#1b1812" fill-rule="evenodd"/><path d="M2089 1725 c-7 -19 -16 -35 -20 -35 -4 0 -5 -9 -2 -20 6 -24 29 -25
72 -4 35 17 34 23 -15 71 l-23 23 -12 -35z" fill="#1b1812" fill-rule="evenodd"/><path d="M1780 1700 c0 -19 11 -26 23 -14 8 8 -3 34 -14 34 -5 0 -9 -9 -9 -20z" fill="#1b1812" fill-rule="evenodd"/><path d="M1950 1640 c8 -5 20 -10 25 -10 6 0 3 5 -5 10 -8 5 -19 10 -25 10 -5
0 -3 -5 5 -10z" fill="#1b1812" fill-rule="evenodd"/><path d="M2175 1621 c-3 -16 -12 -34 -19 -40 -14 -12 -21 -87 -8 -95 5 -3 12
11 16 32 3 20 13 50 21 66 17 32 20 66 6 66 -5 0 -12 -13 -16 -29z" fill="#1b1812" fill-rule="evenodd"/><path d="M1696 1584 c3 -27 8 -50 9 -52 5 -5 75 42 75 50 0 4 -17 15 -37 25
-21 9 -42 19 -46 21 -5 2 -5 -18 -1 -44z" fill="#1b1812" fill-rule="evenodd"/><path d="M1330 1575 c0 -8 5 -15 10 -15 6 0 10 7 10 15 0 8 -4 15 -10 15 -5 0
-10 -7 -10 -15z" fill="#1b1812" fill-rule="evenodd"/><path d="M1750 1545 c0 -3 4 -13 9 -23 5 -9 12 -25 15 -34 3 -10 9 -18 14 -18
13 0 -11 69 -25 75 -7 2 -13 2 -13 0z" fill="#1b1812" fill-rule="evenodd"/><path d="M3835 1511 c-15 -22 -24 -44 -21 -50 8 -12 62 -25 74 -17 10 6 -8
106 -19 106 -3 0 -19 -18 -34 -39z" fill="#1b1812" fill-rule="evenodd"/><path d="M4081 1499 c-18 -52 -15 -59 29 -59 22 0 40 2 40 5 0 12 -29 62 -43
74 -12 10 -17 6 -26 -20z" fill="#1b1812" fill-rule="evenodd"/><path d="M1363 1418 c-5 -7 -17 -32 -26 -55 l-16 -41 54 -4 c30 -1 55 -2 55
-1 0 1 -9 27 -21 58 -21 56 -29 64 -46 43z" fill="#1b1812" fill-rule="evenodd"/><path d="M2085 1358 c-28 -124 -29 -138 -16 -138 7 0 41 124 41 151 0 19 -20
8 -25 -13z" fill="#1b1812" fill-rule="evenodd"/><path d="M1761 1278 c0 -9 -4 -25 -7 -35 -5 -14 -4 -15 5 -7 7 7 11 22 8 35
-2 13 -5 16 -6 7z" fill="#1b1812" fill-rule="evenodd"/><path d="M326 1219 c-20 -41 -22 -51 -10 -56 9 -3 14 -19 14 -44 l0 -39 -46 0
c-59 0 -114 -25 -114 -52 0 -17 4 -19 28 -12 15 5 74 9 132 9 95 0 108 -3 138
-25 25 -19 35 -21 44 -12 17 17 -1 45 -33 54 -118 33 -109 27 -109 74 0 23 4
44 9 46 11 4 -9 108 -21 108 -4 0 -19 -23 -32 -51z" fill="#1b1812" fill-rule="evenodd"/><path d="M2060 1019 c0 -57 4 -88 10 -84 6 3 10 23 10 44 0 20 5 42 10 47 7 7
6 22 -5 47 -8 20 -17 37 -20 37 -3 0 -5 -41 -5 -91z" fill="#1b1812" fill-rule="evenodd"/><path d="M268 935 c-10 -22 -10 -29 -1 -32 7 -3 9 -11 6 -19 -3 -8 -3 -14 0
-14 4 0 11 17 16 37 13 47 -3 68 -21 28z" fill="#1b1812" fill-rule="evenodd"/><path d="M345 950 c-3 -5 3 -10 15 -10 12 0 18 5 15 10 -3 6 -10 10 -15 10 -5
0 -12 -4 -15 -10z" fill="#1b1812" fill-rule="evenodd"/><path d="M426 944 c-9 -8 -16 -21 -16 -27 0 -7 5 -4 11 6 5 9 19 17 29 17 16
0 20 -7 20 -30 0 -38 -24 -49 -52 -24 -21 19 -21 19 -9 -3 16 -30 47 -29 67 2
14 21 15 31 6 50 -13 29 -34 32 -56 9z" fill="#1b1812" fill-rule="evenodd"/><path d="M192 910 c-5 -22 -7 -40 -3 -40 10 0 41 61 35 71 -11 18 -22 8 -32
-31z" fill="#1b1812" fill-rule="evenodd"/><path d="M316 916 c-3 -14 -3 -32 0 -40 6 -17 39 -22 48 -8 3 5 -5 8 -17 8
-19 -1 -22 4 -19 32 3 38 -3 42 -12 8z" fill="#1b1812" fill-rule="evenodd"/><path d="M220 886 c0 -8 5 -18 10 -21 6 -3 10 3 10 14 0 12 -4 21 -10 21 -5 0
-10 -6 -10 -14z" fill="#1b1812" fill-rule="evenodd"/><path d="M2042 817 c-24 -45 -28 -67 -12 -67 6 0 10 -17 10 -39 l0 -38 -62 -7
c-54 -7 -66 -12 -95 -44 -37 -41 -40 -50 -17 -59 11 -4 23 2 33 16 39 51 69
61 184 61 80 0 118 -4 144 -16 26 -13 37 -14 46 -5 23 23 -15 41 -108 49 -85
7 -90 8 -93 31 -2 13 2 34 9 47 12 23 7 90 -8 105 -5 5 -18 -11 -31 -34z" fill="#1b1812" fill-rule="evenodd"/><path d="M986 770 c-26 -39 -28 -51 -30 -144 -1 -55 0 -107 2 -113 3 -9 26
-13 68 -13 l64 0 0 114 0 113 -38 43 -38 43 -28 -43z m64 -37 c17 -22 20 -38
18 -97 l-3 -71 -42 -3 -43 -3 0 75 c0 117 26 154 70 99z m10 -213 c0 -5 -15
-10 -34 -10 -19 0 -38 5 -41 10 -4 6 10 10 34 10 23 0 41 -4 41 -10z" fill="#1b1812" fill-rule="evenodd"/><path d="M2284 756 c-3 -8 -4 -29 -2 -48 3 -31 6 -33 38 -33 32 0 35 3 38 32
2 23 -3 35 -20 47 -28 20 -47 20 -54 2z" fill="#1b1812" fill-rule="evenodd"/><path d="M1373 718 c-16 -19 -43 -88 -43 -108 0 -10 7 -23 15 -30 9 -7 15 -23
13 -34 -2 -17 -16 -24 -70 -36 -98 -22 -148 -81 -97 -113 13 -8 24 -3 54 26
30 29 47 37 91 43 93 11 176 1 213 -26 l34 -23 19 23 c17 21 17 24 3 40 -15
17 -95 37 -165 42 -28 2 -36 8 -38 26 -2 13 2 30 9 38 9 12 9 27 -1 72 -15 66
-23 78 -37 60z" fill="#1b1812" fill-rule="evenodd"/><path d="M3520 650 c0 -6 -7 -10 -15 -10 -20 0 -19 -26 1 -34 23 -9 12 -57
-27 -115 -34 -52 -33 -70 8 -132 l26 -40 22 21 c12 12 30 38 40 59 16 37 16
39 -9 87 -36 70 -42 101 -22 122 14 17 14 19 -4 35 -11 9 -20 12 -20 7z m28
-175 c7 -14 12 -32 12 -40 0 -17 -33 -75 -42 -75 -10 0 -38 55 -38 74 0 28 23
66 40 66 9 0 22 -11 28 -25z" fill="#1b1812" fill-rule="evenodd"/><path d="M5018 618 c-8 -13 -25 -42 -36 -65 l-22 -42 26 -60 c15 -34 29 -61
33 -61 12 1 71 100 71 119 0 25 -41 131 -50 131 -4 0 -14 -10 -22 -22z m42
-73 c10 -29 9 -39 -6 -65 -23 -38 -38 -38 -54 1 -12 27 -11 36 5 65 23 43 40
43 55 -1z" fill="#1b1812" fill-rule="evenodd"/><path d="M2333 583 c-4 -16 -7 -46 -8 -68 0 -38 8 -63 57 -177 l21 -46 38 13
c20 8 48 20 62 27 l24 13 -41 103 c-37 92 -46 105 -86 132 -25 17 -48 30 -52
30 -4 0 -11 -12 -15 -27z m81 -46 c20 -20 72 -136 64 -141 -17 -10 -62 -26
-72 -26 -8 0 -26 32 -41 74 -22 60 -25 78 -16 95 15 27 36 27 65 -2z m36 -191
c0 -9 -30 -14 -35 -6 -4 6 3 10 14 10 12 0 21 -2 21 -4z" fill="#1b1812" fill-rule="evenodd"/><path d="M1670 571 c-19 -36 -12 -70 15 -77 48 -12 70 30 39 74 -19 27 -40 28
-54 3z" fill="#1b1812" fill-rule="evenodd"/><path d="M3916 521 l-36 -59 21 -56 c26 -71 45 -72 88 -6 l33 51 -28 64 c-15
36 -30 65 -34 65 -4 0 -24 -27 -44 -59z m74 -55 c0 -17 -36 -86 -46 -86 -8 0
-34 60 -34 78 0 11 10 32 22 47 l21 27 18 -23 c10 -13 19 -32 19 -43z" fill="#1b1812" fill-rule="evenodd"/><path d="M670 555 c0 -6 -14 -25 -30 -44 -30 -33 -30 -36 -30 -146 0 -125 0
-125 77 -125 62 0 63 1 63 126 l0 115 -40 41 c-22 23 -40 38 -40 33z m45 -69
c12 -17 15 -43 13 -92 l-3 -69 -45 0 -45 0 -3 72 c-2 62 0 75 18 93 26 26 46
25 65 -4z m0 -206 c-3 -5 -17 -10 -30 -10 -13 0 -27 5 -30 10 -4 6 8 10 30 10
22 0 34 -4 30 -10z" fill="#1b1812" fill-rule="evenodd"/><path d="M1936 518 c-11 -43 -6 -53 13 -24 19 28 19 46 2 46 -5 0 -11 -10 -15
-22z" fill="#1b1812" fill-rule="evenodd"/><path d="M2006 525 c-6 -17 8 -63 16 -49 3 5 8 21 12 37 5 20 3 27 -8 27 -8 0
-16 -7 -20 -15z" fill="#1b1812" fill-rule="evenodd"/><path d="M2060 520 c-6 -12 -8 -30 -5 -40 6 -20 39 -27 49 -11 4 5 -3 7 -15 4
-18 -5 -20 -2 -17 23 2 23 8 29 26 28 12 0 22 3 22 8 0 17 -50 7 -60 -12z" fill="#1b1812" fill-rule="evenodd"/><path d="M2189 533 c18 -4 22 -10 18 -29 -2 -13 0 -24 5 -24 5 0 8 12 6 28 -2
21 -9 27 -28 29 -24 1 -24 1 -1 -4z" fill="#1b1812" fill-rule="evenodd"/><path d="M2144 505 c-8 -21 14 -45 40 -45 20 0 19 1 -4 13 -15 8 -24 20 -22
30 4 21 -7 22 -14 2z" fill="#1b1812" fill-rule="evenodd"/><path d="M1966 493 c-11 -11 -6 -23 9 -23 8 0 15 4 15 9 0 13 -16 22 -24 14z" fill="#1b1812" fill-rule="evenodd"/><path d="M1708 386 c-26 -40 -28 -50 -28 -155 l0 -111 64 0 c76 0 73 -4 75
123 2 86 1 89 -34 137 -20 28 -40 50 -43 50 -4 0 -19 -20 -34 -44z m64 -23
c14 -13 18 -31 18 -90 l0 -73 -45 0 -45 0 0 72 c0 52 4 76 17 90 20 22 31 23
55 1z m18 -203 c0 -5 -18 -10 -40 -10 -22 0 -40 5 -40 10 0 6 18 10 40 10 22
0 40 -4 40 -10z" fill="#1b1812" fill-rule="evenodd"/><path d="M4336 422 c-2 -4 -7 -25 -11 -47 -9 -45 4 -40 20 8 6 18 18 33 29 35
17 4 18 -1 13 -37 -3 -23 -1 -39 4 -35 5 3 9 13 9 22 1 22 24 52 40 52 9 0 11
-12 7 -41 -7 -51 11 -39 20 13 l5 36 -65 1 c-37 0 -68 -3 -71 -7z" fill="#1b1812" fill-rule="evenodd"/><path d="M4502 410 c-6 -11 -12 -30 -12 -42 1 -21 2 -22 14 -5 16 21 30 22 45
3 10 -12 7 -15 -16 -19 -28 -5 -28 -5 2 -3 24 1 30 6 30 23 0 11 3 24 7 28 4
4 4 13 1 21 -8 21 -56 17 -71 -6z m56 -2 c-7 -19 -38 -22 -38 -4 0 10 9 16 21
16 12 0 19 -5 17 -12z" fill="#1b1812" fill-rule="evenodd"/><path d="M3064 388 c-9 -18 -23 -38 -30 -46 -20 -19 -17 -56 6 -102 27 -54 39
-58 66 -24 47 59 50 79 19 145 -16 32 -32 59 -37 59 -4 0 -15 -14 -24 -32z
m46 -47 c15 -30 12 -63 -10 -91 -20 -25 -20 -25 -36 -5 -24 32 -28 63 -10 90
20 30 41 32 56 6z" fill="#1b1812" fill-rule="evenodd"/><path d="M1400 326 c0 -7 -9 -16 -20 -19 -11 -3 -20 -10 -20 -15 0 -5 9 -12
20 -15 29 -8 25 -38 -13 -88 -19 -24 -44 -61 -56 -81 l-23 -38 121 0 c67 0
121 3 121 6 0 7 -57 91 -87 127 -26 33 -30 65 -8 73 8 4 15 12 15 20 0 8 -7
14 -15 14 -8 0 -15 7 -15 15 0 8 -4 15 -10 15 -5 0 -10 -6 -10 -14z m49 -170
c17 -24 27 -46 24 -50 -11 -11 -123 -7 -123 5 0 20 43 89 56 89 7 0 27 -20 43
-44z" fill="#1b1812" fill-rule="evenodd"/><path d="M1038 294 c-4 -36 -4 -36 13 -15 10 12 15 29 12 36 -9 26 -21 16 -25
-21z" fill="#1b1812" fill-rule="evenodd"/><path d="M1109 308 c-6 -13 -20 -30 -32 -39 -13 -10 -16 -19 -9 -23 6 -4 16 3
22 14 13 25 35 27 25 3 -4 -11 -3 -14 3 -8 14 14 23 75 12 75 -5 0 -14 -10
-21 -22z" fill="#1b1812" fill-rule="evenodd"/><path d="M1167 313 c-10 -9 -9 -73 1 -73 4 0 7 18 7 40 0 22 0 40 -1 40 0 0
-4 -3 -7 -7z" fill="#1b1812" fill-rule="evenodd"/><path d="M1310 306 c0 -9 5 -16 10 -16 6 0 10 4 10 9 0 6 -4 13 -10 16 -5 3
-10 -1 -10 -9z" fill="#1b1812" fill-rule="evenodd"/><path d="M1240 280 c0 -17 17 -47 23 -40 2 3 -2 16 -10 30 -7 14 -13 18 -13
10z" fill="#1b1812" fill-rule="evenodd"/><path d="M1986 249 c-9 -46 -7 -69 5 -41 9 25 29 21 29 -5 0 -14 2 -14 18 -1
32 28 40 29 35 6 -3 -18 -2 -19 5 -8 5 8 13 30 17 48 9 44 -10 42 -37 -4 -22
-37 -34 -35 -40 5 -5 36 -24 36 -32 0z" fill="#1b1812" fill-rule="evenodd"/><path d="M2138 268 c-37 -30 -23 -86 19 -75 14 4 13 5 -4 6 -25 1 -29 20 -12
53 8 15 17 18 36 13 16 -4 22 -2 18 5 -9 14 -38 13 -57 -2z" fill="#1b1812" fill-rule="evenodd"/><path d="M2230 261 c-5 -11 -10 -27 -10 -37 0 -13 3 -14 15 -4 12 10 18 10 32
-1 15 -13 13 -15 -13 -21 l-29 -7 30 2 c25 2 30 7 36 37 4 19 5 38 3 42 -10
16 -53 8 -64 -11z m48 -9 c2 -7 -6 -12 -17 -12 -21 0 -27 11 -14 24 9 9 26 2
31 -12z" fill="#1b1812" fill-rule="evenodd"/><path d="M484 2655 c-9 -22 4 -35 37 -35 33 0 51 26 28 41 -22 14 -59 11 -65
-6z" fill="#8a4a2e" fill-rule="evenodd"/><path d="M385 2630 c-14 -15 -16 -23 -7 -32 17 -17 62 6 62 32 0 26 -31 26
-55 0z" fill="#8a4a2e" fill-rule="evenodd"/><path d="M594 2639 c-9 -15 6 -28 44 -35 28 -6 32 -4 32 14 0 29 -60 46 -76
21z" fill="#8a4a2e" fill-rule="evenodd"/><path d="M704 2598 c-9 -14 23 -38 53 -38 27 0 30 17 6 36 -22 17 -50 18 -59
2z" fill="#8a4a2e" fill-rule="evenodd"/><path d="M316 2549 c-17 -25 -10 -51 13 -47 10 2 17 15 19 36 4 37 -10 42 -32
11z" fill="#8a4a2e" fill-rule="evenodd"/><path d="M1120 2539 c0 -29 83 -114 104 -106 26 10 18 39 -25 85 -43 46 -79
56 -79 21z" fill="#8a4a2e" fill-rule="evenodd"/><path d="M810 2535 c0 -16 30 -35 54 -35 25 0 19 37 -6 44 -36 9 -48 7 -48 -9z" fill="#8a4a2e" fill-rule="evenodd"/><path d="M910 2491 c0 -20 35 -51 57 -51 21 0 15 38 -9 54 -30 21 -48 20 -48
-3z" fill="#8a4a2e" fill-rule="evenodd"/><path d="M4240 2485 c-18 -22 -3 -35 40 -35 45 0 61 17 35 37 -25 17 -59 17
-75 -2z" fill="#8a4a2e" fill-rule="evenodd"/><path d="M4133 2466 c-29 -14 -31 -46 -2 -46 32 0 59 19 59 40 0 22 -21 24
-57 6z" fill="#8a4a2e" fill-rule="evenodd"/><path d="M4372 2467 c-10 -11 -9 -17 0 -24 24 -19 54 -23 72 -10 15 11 15 15
4 24 -24 20 -64 25 -76 10z" fill="#8a4a2e" fill-rule="evenodd"/><path d="M1088 2446 c-19 -16 -34 -22 -52 -19 -30 6 -33 -5 -11 -46 13 -26 58
-51 91 -51 16 0 19 36 3 45 -7 5 -5 13 6 25 18 20 17 61 -1 67 -6 2 -22 -7
-36 -21z" fill="#8a4a2e" fill-rule="evenodd"/><path d="M2067 2442 c-22 -24 -15 -41 24 -67 62 -41 85 -120 93 -320 4 -82 12
-172 18 -198 12 -47 11 -48 -20 -80 -28 -28 -35 -30 -52 -19 -31 19 -49 14
-56 -15 -3 -16 -10 -40 -14 -55 -7 -23 -5 -31 14 -45 33 -27 46 -56 46 -107 0
-25 6 -60 14 -78 25 -56 132 -575 124 -599 -4 -12 -141 191 -157 234 -6 15
-18 30 -27 34 -8 3 -35 35 -60 72 -25 36 -53 77 -63 91 -10 14 -48 71 -85 127
l-67 101 6 74 c4 40 11 79 17 86 16 18 -6 62 -31 62 -24 0 -35 -30 -26 -70 9
-42 0 -51 -35 -33 -49 24 -64 12 -57 -48 7 -59 23 -82 49 -75 11 2 22 -2 25
-10 3 -8 -2 -117 -12 -242 -23 -298 -23 -298 -35 -432 -5 -63 -10 -123 -10
-133 0 -10 -5 -17 -11 -15 -12 4 -25 38 -104 273 -62 184 -95 277 -105 300 -5
11 -20 57 -34 103 -15 46 -33 97 -42 114 -9 17 -17 49 -18 71 -1 25 -9 44 -21
53 -25 19 -32 18 -45 -7 -9 -16 -8 -24 3 -37 8 -9 20 -34 27 -55 11 -34 9 -45
-14 -102 -32 -81 -28 -95 33 -95 44 0 47 -2 63 -38 9 -21 21 -57 28 -81 6 -24
15 -51 20 -60 4 -9 17 -45 28 -81 11 -36 50 -150 87 -253 61 -175 65 -191 54
-222 -24 -66 31 -117 90 -84 32 18 38 52 16 86 -14 20 -16 42 -12 112 11 209
38 508 47 529 6 13 10 69 10 125 l1 102 32 -39 c18 -22 41 -54 52 -71 58 -93
119 -182 148 -217 13 -16 17 -40 17 -98 0 -57 4 -81 15 -90 19 -16 45 3 45 31
0 37 21 17 90 -87 61 -93 69 -111 68 -148 l-2 -43 -36 8 c-19 5 -56 9 -82 9
-53 0 -58 9 -34 54 12 23 12 34 0 74 -23 74 -46 77 -82 9 -24 -45 -28 -72 -12
-82 6 -3 10 -17 10 -30 0 -21 -6 -25 -47 -31 -27 -3 -57 -11 -68 -17 -34 -17
-65 -61 -65 -90 0 -30 24 -47 45 -31 7 5 31 24 55 42 42 31 45 32 150 32 78 0
111 -4 126 -15 33 -25 64 -19 77 15 8 21 18 30 33 30 56 0 75 83 28 117 -22
16 -29 36 -50 139 -13 65 -33 160 -45 209 -11 50 -25 110 -29 135 -5 25 -16
81 -26 125 -22 106 -21 154 6 217 22 51 22 52 4 67 -18 15 -49 71 -39 71 2 0
20 -7 39 -16 48 -23 66 -14 66 36 0 32 6 46 30 68 32 29 50 93 50 177 0 137
110 307 235 364 33 15 66 35 74 44 11 15 10 18 -14 27 -41 15 -62 12 -88 -14
-17 -17 -31 -22 -50 -19 -22 4 -29 0 -39 -23 -16 -38 -15 -37 -40 -39 -18 -1
-24 -9 -29 -38 -3 -21 -8 -39 -10 -40 -2 -2 -16 -11 -31 -20 -16 -10 -28 -23
-28 -30 0 -7 -8 -24 -17 -37 -10 -14 -19 -38 -20 -55 -4 -55 -15 -105 -24
-105 -10 0 -22 40 -18 61 1 8 -1 32 -6 53 -5 26 -4 46 4 57 15 24 14 29 -4 29
-11 0 -15 11 -15 41 0 46 -35 116 -63 125 -10 3 -25 21 -34 40 -9 19 -20 34
-24 34 -4 0 -14 2 -21 5 -8 3 -22 -3 -31 -13z m207 -498 c4 -9 4 -19 2 -21 -8
-8 -26 8 -26 23 0 19 16 18 24 -2z" fill="#8a4a2e" fill-rule="evenodd"/><path d="M287 2444 c-4 -4 -7 -25 -7 -46 0 -32 3 -39 18 -36 13 2 17 13 17 42
0 37 -13 55 -28 40z" fill="#8a4a2e" fill-rule="evenodd"/><path d="M548 2422 c-23 -10 -38 -24 -38 -34 0 -22 8 -23 30 -3 10 9 39 18 66
21 46 6 52 4 99 -35 27 -23 53 -41 56 -41 4 0 30 -29 57 -64 48 -61 74 -92
135 -157 15 -17 27 -37 27 -44 0 -16 14 -27 23 -19 3 3 -6 28 -20 55 -23 43
-24 53 -14 76 9 19 9 29 2 31 -17 6 -13 20 14 56 14 18 25 38 25 45 0 23 -31
23 -55 1 -23 -21 -27 -22 -51 -10 -19 11 -29 11 -44 2 -14 -9 -19 -8 -24 3 -3
8 -14 15 -25 15 -11 0 -32 15 -46 34 -62 81 -137 104 -217 68z" fill="#8a4a2e" fill-rule="evenodd"/><path d="M4491 2427 c-17 -17 -14 -23 29 -42 30 -14 44 -15 52 -7 15 15 -3 37
-41 50 -20 7 -32 7 -40 -1z" fill="#8a4a2e" fill-rule="evenodd"/><path d="M4027 2392 c-22 -25 -21 -42 2 -42 23 0 53 28 48 44 -6 19 -32 18
-50 -2z" fill="#8a4a2e" fill-rule="evenodd"/><path d="M4623 2373 c-19 -7 -16 -20 6 -26 29 -7 48 9 25 21 -11 5 -25 7 -31
5z" fill="#8a4a2e" fill-rule="evenodd"/><path d="M5009 2361 c-14 -5 -36 -14 -50 -21 -13 -8 -40 -16 -59 -20 -56 -9
-46 -34 15 -38 40 -3 60 -11 103 -44 l53 -41 52 13 c79 19 127 41 127 55 0 14
-68 74 -107 94 -24 12 -95 13 -134 2z m107 -62 c6 -10 -11 -29 -26 -29 -3 0
-11 4 -19 9 -17 11 -5 31 19 31 10 0 22 -5 26 -11z" fill="#8a4a2e" fill-rule="evenodd"/><path d="M4743 2343 c-34 -12 5 -52 49 -53 29 0 46 16 31 31 -13 13 -65 27
-80 22z" fill="#8a4a2e" fill-rule="evenodd"/><path d="M1167 2328 c-12 -10 -14 -21 -9 -48 8 -34 9 -35 57 -35 58 0 66 13
35 63 -21 34 -53 42 -83 20z" fill="#8a4a2e" fill-rule="evenodd"/><path d="M280 2288 c0 -18 4 -39 9 -47 15 -23 31 -2 31 40 0 32 -3 39 -20 39
-16 0 -20 -7 -20 -32z" fill="#8a4a2e" fill-rule="evenodd"/><path d="M435 2308 c-28 -92 -39 -156 -27 -171 5 -7 12 -29 16 -49 13 -73 84
-206 123 -231 7 -4 13 -17 13 -29 0 -22 66 -118 81 -118 5 0 9 -6 9 -14 0 -7
15 -25 33 -39 17 -13 43 -34 56 -46 20 -18 37 -21 103 -21 43 0 78 4 78 9 0 5
-36 12 -80 16 -78 7 -82 8 -124 51 -25 24 -49 44 -54 44 -4 0 -19 23 -33 51
-13 29 -36 63 -51 78 -16 14 -28 32 -28 38 0 7 -9 18 -20 25 -11 7 -20 22 -20
33 0 11 -9 31 -20 45 -11 14 -20 36 -20 50 0 14 -7 45 -16 69 -12 35 -14 65
-8 133 3 48 4 88 0 88 -4 0 -8 -6 -11 -12z" fill="#8a4a2e" fill-rule="evenodd"/><path d="M3931 2281 c-24 -33 -27 -51 -8 -51 21 0 57 39 57 60 0 29 -26 24
-49 -9z" fill="#8a4a2e" fill-rule="evenodd"/><path d="M4315 2289 c-4 -6 -5 -12 -3 -14 8 -8 117 8 112 16 -8 13 -102 11
-109 -2z" fill="#8a4a2e" fill-rule="evenodd"/><path d="M4466 2291 c-3 -5 13 -14 37 -19 59 -15 157 -69 184 -101 13 -14 35
-46 50 -71 14 -25 32 -49 39 -55 8 -5 20 -27 29 -47 8 -20 21 -41 29 -45 8 -4
32 -46 55 -92 44 -90 52 -143 26 -177 -8 -10 -15 -29 -15 -41 0 -15 -12 -26
-44 -39 -25 -11 -47 -27 -50 -36 -3 -15 -16 -18 -89 -18 -47 0 -89 5 -92 10
-3 6 -16 10 -28 10 -22 0 -22 -1 3 -20 20 -16 41 -20 107 -20 45 0 84 4 87 9
3 4 24 11 46 15 32 5 43 12 51 34 5 15 16 32 24 38 17 13 26 50 32 127 7 85 5
91 -64 177 -13 15 -23 35 -23 43 0 9 -4 19 -10 22 -5 3 -28 37 -51 75 -55 92
-127 167 -196 202 -55 27 -126 37 -137 19z" fill="#8a4a2e" fill-rule="evenodd"/><path d="M555 2265 c-8 -14 -22 -36 -30 -50 -8 -13 -15 -36 -15 -50 0 -43 22
-116 36 -122 8 -3 14 -10 14 -16 0 -6 6 -18 13 -26 8 -9 20 -32 27 -51 12 -32
45 -78 87 -122 9 -10 21 -28 27 -40 12 -24 46 -38 46 -19 0 6 -13 25 -30 43
-16 17 -30 35 -30 41 0 8 -27 46 -62 87 -8 9 -22 37 -32 63 -10 26 -22 47 -26
47 -23 0 -41 152 -20 165 6 3 10 14 10 25 0 26 74 32 105 8 13 -10 26 -18 29
-18 17 0 64 -48 100 -100 18 -27 32 -38 38 -32 15 15 -36 95 -94 147 -48 43
-52 45 -114 45 -57 0 -65 -3 -79 -25z" fill="#8a4a2e" fill-rule="evenodd"/><path d="M4237 2263 c-4 -3 -7 -15 -7 -26 0 -11 -7 -25 -15 -31 -10 -7 -17
-37 -21 -88 -6 -68 -5 -78 10 -78 13 0 16 11 16 55 0 64 21 122 47 132 18 7
33 22 33 36 0 9 -54 9 -63 0z" fill="#8a4a2e" fill-rule="evenodd"/><path d="M5264 2246 c-7 -19 23 -101 44 -118 12 -11 20 -6 48 26 45 52 45 81
2 90 -18 3 -45 9 -60 12 -20 5 -29 2 -34 -10z" fill="#8a4a2e" fill-rule="evenodd"/><path d="M300 2184 c-15 -38 3 -83 25 -64 19 16 19 49 0 74 -14 18 -15 18 -25
-10z" fill="#8a4a2e" fill-rule="evenodd"/><path d="M4446 2203 c-85 -9 -105 -52 -80 -170 13 -66 38 -113 62 -121 18 -6
14 16 -5 36 -10 9 -24 30 -30 45 -15 33 -17 133 -3 142 6 3 10 15 10 26 0 16
7 19 45 19 53 0 104 -19 147 -55 16 -14 36 -25 44 -25 8 0 14 -9 14 -21 0 -12
10 -29 23 -39 13 -10 38 -48 57 -85 18 -36 41 -70 51 -75 9 -5 24 -28 33 -51
13 -32 20 -39 29 -30 9 9 9 16 -1 31 -6 11 -12 26 -12 34 0 8 -6 19 -12 23
-23 14 -76 88 -98 137 -13 26 -31 51 -41 57 -11 5 -19 15 -19 22 0 31 -137
116 -170 105 -3 -1 -23 -3 -44 -5z" fill="#8a4a2e" fill-rule="evenodd"/><path d="M1323 2184 c-8 -21 14 -67 30 -62 17 6 21 46 7 64 -16 18 -29 18 -37
-2z" fill="#8a4a2e" fill-rule="evenodd"/><path d="M3875 2190 c-3 -5 -17 -10 -31 -10 -29 0 -44 -31 -44 -89 0 -68 36
-75 97 -18 31 29 32 32 18 54 -9 13 -15 29 -14 36 4 34 -11 51 -26 27z" fill="#8a4a2e" fill-rule="evenodd"/><path d="M651 2166 c-15 -17 -4 -103 18 -136 8 -14 23 -41 32 -60 9 -19 32
-53 52 -75 19 -22 44 -50 54 -62 10 -12 35 -24 60 -28 l41 -6 7 40 c4 27 2 51
-8 73 -8 18 -15 41 -14 51 0 16 2 16 18 1 23 -21 55 -81 64 -122 9 -45 25 -50
25 -9 0 46 -23 98 -60 138 -16 19 -30 37 -30 42 0 5 -9 22 -21 39 -20 28 -22
28 -40 12 -18 -17 -21 -16 -49 11 -16 16 -32 37 -35 47 -4 9 -27 27 -52 38
-54 24 -48 23 -62 6z m85 -68 c46 -36 107 -100 125 -134 9 -16 19 -48 21 -70
3 -35 0 -39 -21 -42 -16 -3 -35 8 -62 34 -22 21 -39 44 -39 51 0 6 -6 16 -14
20 -7 4 -28 36 -45 71 -25 50 -30 67 -20 78 15 19 20 18 55 -8z" fill="#8a4a2e" fill-rule="evenodd"/><path d="M5370 2150 c0 -21 44 -70 62 -70 25 0 22 27 -7 55 -25 26 -55 33 -55
15z" fill="#8a4a2e" fill-rule="evenodd"/><path d="M1365 2090 c-11 -18 6 -50 26 -50 22 0 26 29 7 48 -15 15 -25 15 -33
2z" fill="#8a4a2e" fill-rule="evenodd"/><path d="M4487 2074 c-19 -19 20 -194 43 -194 6 0 10 -8 10 -17 1 -44 103
-107 164 -101 30 3 31 4 31 53 -1 40 -6 56 -28 79 -15 16 -27 33 -27 39 0 24
-52 117 -65 117 -8 0 -15 -3 -15 -7 0 -9 52 -117 59 -123 7 -6 27 -37 43 -67
15 -30 -4 -53 -43 -53 -21 0 -41 13 -74 46 -48 50 -68 101 -63 162 3 34 6 37
36 40 20 2 32 9 32 18 0 10 -13 14 -48 14 -27 0 -52 -3 -55 -6z" fill="#8a4a2e" fill-rule="evenodd"/><path d="M320 2046 c0 -25 12 -46 25 -46 21 0 27 17 15 40 -12 23 -40 27 -40
6z" fill="#8a4a2e" fill-rule="evenodd"/><path d="M5482 2041 c-9 -6 -10 -15 -3 -33 18 -46 71 -45 56 1 -8 25 -36 42
-53 32z" fill="#8a4a2e" fill-rule="evenodd"/><path d="M1024 2013 c4 -16 21 -56 38 -90 24 -49 29 -69 24 -97 -5 -25 -3 -36
5 -36 22 0 2 151 -27 204 -29 51 -50 61 -40 19z" fill="#8a4a2e" fill-rule="evenodd"/><path d="M3443 2000 c-4 -16 -14 -20 -43 -20 -21 0 -43 -7 -50 -15 -10 -12 -8
-16 15 -25 14 -5 35 -10 45 -10 12 0 20 -8 22 -22 4 -29 38 -35 82 -14 60 28
62 39 14 85 -47 45 -77 52 -85 21z" fill="#8a4a2e" fill-rule="evenodd"/><path d="M1420 1982 c0 -15 5 -33 12 -40 9 -9 9 -15 0 -24 -21 -21 -13 -46 21
-72 52 -40 73 -35 80 19 4 25 2 57 -3 71 -8 21 -15 25 -34 20 -20 -5 -26 -1
-32 16 -13 44 -44 51 -44 10z" fill="#8a4a2e" fill-rule="evenodd"/><path d="M3241 1968 c-47 -25 -19 -45 46 -33 25 4 33 11 31 23 -4 21 -45 26
-77 10z" fill="#8a4a2e" fill-rule="evenodd"/><path d="M4232 1964 c1 -9 9 -19 16 -22 9 -3 13 2 10 14 -1 9 -9 19 -16 22 -9
3 -13 -2 -10 -14z" fill="#8a4a2e" fill-rule="evenodd"/><path d="M355 1939 c-10 -16 4 -59 19 -59 19 0 28 28 16 51 -12 21 -25 25 -35
8z" fill="#8a4a2e" fill-rule="evenodd"/><path d="M5540 1914 c0 -20 18 -54 29 -54 15 0 21 31 11 51 -13 23 -40 25 -40
3z" fill="#8a4a2e" fill-rule="evenodd"/><path d="M3137 1902 c-40 -44 -7 -65 34 -23 16 17 29 33 29 36 0 13 -49 3 -63
-13z" fill="#8a4a2e" fill-rule="evenodd"/><path d="M4285 1900 c-6 -10 82 -120 97 -120 14 0 8 20 -18 60 -30 44 -70 75
-79 60z" fill="#8a4a2e" fill-rule="evenodd"/><path d="M4437 1881 c7 -26 53 -70 53 -50 0 17 -16 38 -42 58 -14 10 -16 9
-11 -8z" fill="#8a4a2e" fill-rule="evenodd"/><path d="M394 1816 c-9 -23 4 -66 20 -66 18 0 24 19 17 49 -8 29 -29 39 -37
17z" fill="#8a4a2e" fill-rule="evenodd"/><path d="M3101 1796 c-16 -19 -1 -71 20 -71 10 0 14 12 14 39 0 42 -15 56 -34
32z" fill="#8a4a2e" fill-rule="evenodd"/><path d="M4485 1801 c-3 -5 2 -17 11 -26 19 -19 40 -6 31 19 -7 17 -32 21 -42
7z" fill="#8a4a2e" fill-rule="evenodd"/><path d="M987 1774 c-4 -4 -7 -14 -7 -23 0 -11 3 -12 11 -4 6 6 10 16 7 23 -2
6 -7 8 -11 4z" fill="#8a4a2e" fill-rule="evenodd"/><path d="M802 1728 c5 -15 88 -23 127 -13 42 11 4 25 -67 25 -47 0 -63 -3 -60
-12z" fill="#8a4a2e" fill-rule="evenodd"/><path d="M4424 1712 c8 -15 23 -36 35 -46 21 -19 21 -19 21 7 0 30 -31 67 -55
67 -14 0 -14 -3 -1 -28z" fill="#8a4a2e" fill-rule="evenodd"/><path d="M4550 1734 c0 -3 14 -10 30 -15 17 -6 30 -17 30 -25 0 -17 49 -26
125 -22 53 3 61 6 74 30 18 31 6 52 -14 25 -9 -12 -33 -21 -70 -26 -50 -7 -64
-5 -106 16 -48 23 -69 28 -69 17z" fill="#8a4a2e" fill-rule="evenodd"/><path d="M426 1704 c-8 -21 15 -69 34 -69 22 0 24 43 4 66 -21 23 -30 24 -38
3z" fill="#8a4a2e" fill-rule="evenodd"/><path d="M3110 1643 c0 -33 12 -63 25 -63 17 0 24 20 18 53 -6 31 -43 39 -43
10z" fill="#8a4a2e" fill-rule="evenodd"/><path d="M5546 1625 c-10 -26 -7 -63 6 -71 16 -10 39 26 36 56 -3 29 -32 39
-42 15z" fill="#8a4a2e" fill-rule="evenodd"/><path d="M480 1584 c-12 -13 -12 -20 0 -41 20 -35 36 -29 32 10 -4 41 -15 52
-32 31z" fill="#8a4a2e" fill-rule="evenodd"/><path d="M3850 1557 c-9 -7 -29 -29 -44 -50 l-29 -38 22 -23 c19 -20 21 -28
11 -45 -13 -25 -5 -61 14 -61 13 0 36 41 36 64 0 8 11 17 25 20 20 5 25 12 24
39 0 39 -20 99 -34 103 -5 2 -17 -2 -25 -9z" fill="#8a4a2e" fill-rule="evenodd"/><path d="M4075 1540 c-3 -5 -12 -31 -20 -57 -17 -55 -7 -74 33 -69 15 2 21 1
15 -1 -18 -6 -17 -88 1 -102 21 -18 40 22 33 70 -4 31 -2 38 15 42 17 5 19 11
13 39 -12 54 -72 107 -90 78z" fill="#8a4a2e" fill-rule="evenodd"/><path d="M3136 1505 c-10 -26 -7 -63 5 -71 16 -10 30 16 27 50 -3 33 -22 45
-32 21z" fill="#8a4a2e" fill-rule="evenodd"/><path d="M5504 1512 c-15 -10 -34 -47 -34 -66 0 -28 39 -18 55 15 22 42 10 72
-21 51z" fill="#8a4a2e" fill-rule="evenodd"/><path d="M516 1461 c-8 -13 11 -61 24 -61 17 0 23 27 10 49 -11 22 -25 27 -34
12z" fill="#8a4a2e" fill-rule="evenodd"/><path d="M2071 1378 c-4 -13 -14 -53 -21 -91 -15 -73 -8 -94 27 -83 14 4 23
26 37 86 10 44 15 87 12 95 -9 23 -45 18 -55 -7z" fill="#8a4a2e" fill-rule="evenodd"/><path d="M5410 1368 c-23 -39 -25 -58 -6 -58 21 0 66 58 60 75 -10 25 -33 17
-54 -17z" fill="#8a4a2e" fill-rule="evenodd"/><path d="M3067 1361 c-23 -39 -22 -61 3 -61 13 0 25 12 35 36 24 58 -7 78 -38
25z" fill="#8a4a2e" fill-rule="evenodd"/><path d="M550 1315 c0 -36 22 -57 40 -39 14 14 -4 69 -23 72 -13 3 -17 -4 -17
-33z" fill="#8a4a2e" fill-rule="evenodd"/><path d="M3757 1273 c-16 -31 -12 -53 8 -53 17 0 35 31 35 59 0 30 -27 26 -43
-6z" fill="#8a4a2e" fill-rule="evenodd"/><path d="M329 1273 c-27 -32 -44 -102 -31 -124 23 -36 15 -46 -39 -51 -63 -6
-103 -34 -107 -75 -4 -40 14 -46 68 -21 58 27 170 21 228 -12 47 -27 86 -24
90 7 5 31 -25 56 -91 77 -61 19 -68 31 -46 79 16 36 -9 131 -37 135 -11 2 -27
-5 -35 -15z" fill="#8a4a2e" fill-rule="evenodd"/><path d="M3022 1271 c-16 -10 -33 -68 -25 -87 11 -29 38 -10 47 34 10 45 1 67
-22 53z" fill="#8a4a2e" fill-rule="evenodd"/><path d="M5325 1256 c-17 -26 -15 -56 4 -56 14 0 52 51 48 64 -7 21 -36 17
-52 -8z" fill="#8a4a2e" fill-rule="evenodd"/><path d="M1357 1264 c-10 -10 -8 -56 2 -73 16 -24 43 6 39 43 -3 29 -25 46
-41 30z" fill="#8a4a2e" fill-rule="evenodd"/><path d="M4086 1244 c-10 -25 -7 -59 6 -72 19 -19 38 6 38 49 0 32 -4 39 -19
39 -10 0 -22 -7 -25 -16z" fill="#8a4a2e" fill-rule="evenodd"/><path d="M580 1206 c0 -34 10 -56 25 -56 19 0 26 26 15 55 -12 33 -40 33 -40
1z" fill="#8a4a2e" fill-rule="evenodd"/><path d="M3687 1162 c-10 -10 -17 -26 -17 -35 0 -25 35 -21 52 6 27 41 -2 65
-35 29z" fill="#8a4a2e" fill-rule="evenodd"/><path d="M5247 1140 c-18 -31 -16 -50 6 -50 16 0 50 57 42 70 -11 18 -30 10
-48 -20z" fill="#8a4a2e" fill-rule="evenodd"/><path d="M1354 1115 c-4 -18 -1 -32 10 -43 21 -21 39 -4 34 34 -4 39 -35 45
-44 9z" fill="#8a4a2e" fill-rule="evenodd"/><path d="M3027 1123 c-20 -19 12 -101 34 -88 15 10 10 62 -7 79 -18 18 -18 18
-27 9z" fill="#8a4a2e" fill-rule="evenodd"/><path d="M4074 1122 c-16 -11 -34 -48 -34 -72 0 -35 32 -20 49 23 14 38 7 63
-15 49z" fill="#8a4a2e" fill-rule="evenodd"/><path d="M605 1101 c-7 -25 12 -74 28 -69 16 6 21 42 7 67 -13 26 -27 27 -35
2z" fill="#8a4a2e" fill-rule="evenodd"/><path d="M3601 1044 c-26 -33 -27 -54 -3 -54 15 0 52 54 52 75 0 15 -32 1 -49
-21z" fill="#8a4a2e" fill-rule="evenodd"/><path d="M5166 1026 c-21 -44 -20 -56 3 -56 24 0 51 36 51 67 0 36 -35 29 -54
-11z" fill="#8a4a2e" fill-rule="evenodd"/><path d="M1367 1014 c-4 -4 -7 -23 -7 -41 0 -27 4 -34 18 -31 12 2 17 13 17
37 0 33 -13 49 -28 35z" fill="#8a4a2e" fill-rule="evenodd"/><path d="M3067 983 c-10 -9 -8 -55 2 -72 11 -17 41 -7 41 13 0 23 -18 66 -28
66 -5 0 -12 -3 -15 -7z" fill="#8a4a2e" fill-rule="evenodd"/><path d="M4006 975 c-21 -22 -30 -55 -17 -68 16 -16 51 21 51 55 0 31 -11 36
-34 13z" fill="#8a4a2e" fill-rule="evenodd"/><path d="M630 961 c0 -29 11 -51 25 -51 17 0 27 28 20 51 -8 26 -45 25 -45 0z" fill="#8a4a2e" fill-rule="evenodd"/><path d="M3533 926 c-18 -38 -12 -69 14 -64 19 3 34 48 26 78 -8 29 -21 25
-40 -14z" fill="#8a4a2e" fill-rule="evenodd"/><path d="M5104 916 c-19 -29 -15 -71 6 -71 8 0 20 16 26 35 19 58 -2 81 -32
36z" fill="#8a4a2e" fill-rule="evenodd"/><path d="M1363 884 c-7 -20 8 -66 24 -71 17 -6 25 30 14 61 -12 29 -29 34 -38
10z" fill="#8a4a2e" fill-rule="evenodd"/><path d="M3946 835 c-17 -25 -14 -65 4 -65 15 0 42 47 38 66 -5 27 -24 27 -42
-1z" fill="#8a4a2e" fill-rule="evenodd"/><path d="M655 840 c-3 -5 -1 -19 5 -30 19 -35 44 -21 33 18 -6 23 -27 29 -38
12z" fill="#8a4a2e" fill-rule="evenodd"/><path d="M3086 835 c-7 -18 3 -73 15 -80 14 -9 31 35 24 66 -7 31 -29 39 -39
14z" fill="#8a4a2e" fill-rule="evenodd"/><path d="M987 802 c-47 -51 -57 -84 -57 -195 0 -67 4 -107 12 -115 7 -7 41
-12 84 -12 56 0 73 3 78 16 3 9 6 64 6 123 0 108 0 108 -34 153 -45 58 -58 63
-89 30z m53 -92 c6 -11 10 -44 8 -73 -2 -41 -7 -53 -22 -55 -10 -2 -22 2 -27
10 -19 30 -3 138 20 138 6 0 15 -9 21 -20z" fill="#8a4a2e" fill-rule="evenodd"/><path d="M3514 806 c-3 -8 -4 -31 -2 -52 2 -31 7 -39 23 -39 23 0 30 23 20 71
-6 35 -31 47 -41 20z" fill="#8a4a2e" fill-rule="evenodd"/><path d="M5055 776 c-9 -45 -3 -71 15 -71 17 0 36 64 27 89 -11 28 -36 18 -42
-18z" fill="#8a4a2e" fill-rule="evenodd"/><path d="M1376 769 c-2 -8 -14 -43 -26 -78 -20 -57 -21 -69 -10 -102 17 -49 2
-69 -49 -69 -58 0 -134 -62 -124 -100 9 -34 38 -33 88 2 44 31 53 33 143 36
93 3 125 -3 165 -30 23 -17 51 1 55 35 3 22 -3 29 -35 42 -21 9 -67 19 -103
22 l-66 6 0 109 c-1 86 -5 113 -17 126 -14 13 -17 13 -21 1z" fill="#8a4a2e" fill-rule="evenodd"/><path d="M670 701 c0 -35 15 -48 28 -25 12 22 4 54 -14 54 -9 0 -14 -11 -14
-29z" fill="#8a4a2e" fill-rule="evenodd"/><path d="M3922 678 c2 -32 8 -44 21 -46 16 -3 18 2 15 40 -2 32 -8 44 -21 46
-16 3 -18 -2 -15 -40z" fill="#8a4a2e" fill-rule="evenodd"/><path d="M3094 697 c-10 -28 0 -82 16 -82 11 0 15 12 15 44 0 44 -19 68 -31
38z" fill="#8a4a2e" fill-rule="evenodd"/><path d="M3487 655 c-16 -22 -17 -30 -5 -61 11 -30 10 -39 -5 -62 -45 -72 -50
-92 -32 -139 10 -25 28 -57 40 -71 29 -32 46 -26 87 34 33 48 36 99 8 151 -23
43 -25 75 -8 102 9 15 7 23 -8 44 -24 33 -54 34 -77 2z m47 -201 c7 -19 -1
-54 -14 -54 -12 0 -21 31 -15 51 8 23 21 24 29 3z" fill="#8a4a2e" fill-rule="evenodd"/><path d="M5000 628 c-57 -99 -63 -117 -47 -151 8 -18 21 -49 28 -69 7 -21 19
-40 27 -43 18 -7 63 44 88 98 15 33 16 45 6 83 -18 65 -45 118 -62 122 -10 2
-26 -14 -40 -40z m40 -113 c0 -25 -14 -34 -24 -16 -8 12 3 41 15 41 5 0 9 -11
9 -25z" fill="#8a4a2e" fill-rule="evenodd"/><path d="M2320 604 c-30 -77 -19 -139 51 -292 17 -39 21 -42 46 -36 50 13 114
45 120 61 6 16 -21 105 -57 186 -16 36 -32 52 -74 76 -65 38 -74 38 -86 5z
m106 -124 c13 -25 24 -52 24 -61 0 -20 -37 -32 -47 -16 -16 25 -42 110 -37
119 12 19 38 1 60 -42z" fill="#8a4a2e" fill-rule="evenodd"/><path d="M3935 588 c-83 -117 -83 -118 -43 -210 23 -51 40 -63 68 -48 20 11
80 103 80 123 0 27 -59 152 -73 155 -9 2 -23 -7 -32 -20z m30 -108 c8 -13 -4
-50 -16 -50 -13 0 -22 27 -15 45 6 17 22 20 31 5z" fill="#8a4a2e" fill-rule="evenodd"/><path d="M633 533 l-43 -48 0 -122 c0 -141 1 -143 90 -143 88 0 90 3 90 139
l0 118 -41 52 c-22 28 -43 51 -46 51 -4 0 -26 -21 -50 -47z m72 -76 c4 -13 5
-43 3 -68 -3 -40 -6 -44 -31 -47 -28 -3 -29 -3 -26 50 1 29 5 61 7 71 6 25 41
21 47 -6z" fill="#8a4a2e" fill-rule="evenodd"/><path d="M3087 554 c-4 -4 -7 -25 -7 -46 0 -32 3 -39 18 -36 13 2 17 13 17 42
0 37 -13 55 -28 40z" fill="#8a4a2e" fill-rule="evenodd"/><path d="M3064 432 c-9 -15 -25 -39 -36 -54 -40 -60 -41 -77 -8 -144 34 -69
54 -83 81 -58 22 20 69 101 69 119 0 23 -62 154 -76 159 -8 3 -21 -6 -30 -22z
m34 -129 c-4 -39 -28 -42 -28 -4 0 21 5 31 16 31 11 0 14 -8 12 -27z" fill="#8a4a2e" fill-rule="evenodd"/><path d="M1691 401 c-32 -49 -32 -49 -29 -172 l3 -124 73 -3 c46 -2 79 2 88 9
10 8 14 39 14 119 0 96 -3 111 -23 141 -64 95 -82 99 -126 30z m77 -124 c3
-66 2 -68 -20 -65 -20 3 -23 9 -26 57 -4 65 2 84 25 79 15 -3 19 -16 21 -71z" fill="#8a4a2e" fill-rule="evenodd"/><path d="M1368 331 c-31 -31 -36 -59 -13 -67 20 -8 19 -33 -2 -56 -17 -19 -25
-31 -61 -98 -19 -34 -21 -44 -10 -51 18 -12 239 -11 258 1 13 8 13 13 -3 43
-10 18 -36 56 -57 85 -39 51 -39 52 -23 80 16 27 15 30 -7 60 -29 39 -47 40
-82 3z m63 -182 c9 -17 8 -23 -2 -30 -33 -21 -57 -2 -39 31 14 26 26 25 41 -1z" fill="#8a4a2e" fill-rule="evenodd"/><path d="M3815 2000 c-34 -14 -52 -44 -57 -101 -6 -51 -5 -56 20 -70 26 -14
57 -11 102 11 24 12 25 79 1 111 -12 16 -21 32 -21 38 0 14 -23 19 -45 11z
m39 -95 c4 -10 -2 -19 -17 -24 -29 -11 -47 -3 -47 20 0 24 55 27 64 4z" fill="#2f4f8c" fill-rule="evenodd"/><path d="M4038 1874 c-16 -8 -28 -19 -28 -24 0 -16 118 -131 124 -121 4 6 6
27 5 48 0 21 1 47 3 58 2 14 -3 21 -19 23 -27 4 -30 19 -5 25 9 3 1 5 -18 5
-19 1 -47 -6 -62 -14z" fill="#2f4f8c" fill-rule="evenodd"/><path d="M3628 1873 c0 -5 -2 -26 -2 -48 -1 -31 -6 -42 -23 -50 -16 -7 -23
-18 -23 -37 0 -16 -4 -28 -9 -28 -21 0 -79 42 -84 60 -5 20 -38 27 -71 14 -22
-9 -20 -41 3 -49 11 -3 24 -19 30 -35 6 -19 17 -30 29 -30 22 0 57 -34 48 -48
-9 -15 21 -34 42 -27 12 3 26 -1 35 -10 27 -27 60 -23 71 7 8 22 6 31 -9 48
-10 11 -24 20 -30 20 -7 0 -18 6 -24 14 -8 10 -5 20 15 42 15 15 30 39 34 53
4 16 16 28 31 31 15 4 25 14 27 29 3 20 0 23 -21 19 -19 -4 -27 0 -30 14 -5
17 -35 26 -39 11z" fill="#2f4f8c" fill-rule="evenodd"/><path d="M1823 1833 c-26 -18 -31 -43 -8 -43 8 0 24 -18 35 -39 23 -46 31 -53
50 -41 11 7 10 14 -3 43 -19 40 -21 63 -7 72 6 3 10 10 10 16 0 15 -53 10 -77
-8z" fill="#2f4f8c" fill-rule="evenodd"/><path d="M1431 1764 c-12 -15 -24 -38 -27 -51 -11 -42 2 -113 25 -137 28 -30
27 -34 -11 -38 -45 -4 -51 -39 -11 -65 15 -10 33 -24 40 -33 10 -13 14 -12 32
4 19 17 22 18 45 2 32 -20 52 -20 60 0 4 11 13 14 30 10 35 -9 56 3 56 29 0
45 -21 53 -121 47 l-92 -5 34 44 c19 24 37 46 42 47 4 2 7 25 7 51 0 39 -5 52
-27 72 -58 52 -59 52 -82 23z m54 -44 c13 -15 16 -30 12 -61 -7 -51 -11 -55
-42 -41 -21 10 -25 18 -25 55 0 39 13 67 30 67 4 0 15 -9 25 -20z" fill="#2f4f8c" fill-rule="evenodd"/><path d="M2533 1775 c-18 -8 -33 -18 -33 -24 0 -5 -10 -13 -22 -17 -26 -8
-163 -142 -154 -151 17 -18 137 76 168 131 4 8 21 17 37 21 16 3 35 13 42 21
17 21 77 17 106 -6 31 -24 38 -20 29 15 -6 24 -10 25 -74 25 -37 -1 -82 -7
-99 -15z" fill="#2f4f8c" fill-rule="evenodd"/><path d="M1040 1732 c-48 -15 -69 -72 -27 -72 32 0 44 -12 43 -40 -1 -20 4
-25 25 -26 35 -1 49 -11 49 -36 0 -17 5 -19 27 -15 35 7 61 -7 73 -39 5 -13
14 -24 20 -24 13 0 22 40 18 76 -2 22 -11 30 -44 41 -28 9 -56 31 -88 68 -51
60 -73 75 -96 67z" fill="#2f4f8c" fill-rule="evenodd"/><path d="M1988 1707 c-35 -31 -64 -48 -140 -82 -40 -18 -53 -42 -44 -81 8 -30
24 -31 28 -1 3 19 8 22 47 20 34 -2 47 3 61 20 15 18 21 20 43 10 28 -13 37
-8 37 18 0 10 11 35 25 55 19 28 22 40 14 55 -14 26 -28 23 -71 -14z" fill="#2f4f8c" fill-rule="evenodd"/><path d="M4220 1730 c0 -5 -8 -10 -17 -10 -10 0 -27 -7 -37 -15 -11 -8 -30
-15 -43 -15 -41 0 -59 -80 -22 -103 12 -7 22 -3 44 19 18 18 30 24 33 16 7
-21 30 -13 44 16 11 21 20 27 47 27 42 0 48 14 21 48 -21 26 -70 38 -70 17z" fill="#2f4f8c" fill-rule="evenodd"/><path d="M2723 1665 c0 -18 -72 -165 -90 -183 -15 -15 -14 -34 2 -33 6 0 11 9
13 21 2 11 12 25 23 30 26 15 70 107 67 143 -2 29 -15 48 -15 22z" fill="#2f4f8c" fill-rule="evenodd"/><path d="M2536 1645 c-3 -9 3 -19 15 -26 27 -14 34 -6 17 20 -15 25 -24 26
-32 6z" fill="#2f4f8c" fill-rule="evenodd"/><path d="M3835 1643 c-67 -4 -71 -5 -83 -33 -15 -33 -8 -70 13 -70 7 0 15 8
17 17 3 15 16 18 83 19 67 1 82 -2 93 -17 22 -31 45 -12 37 30 -4 20 -10 39
-13 43 -11 10 -71 15 -147 11z" fill="#2f4f8c" fill-rule="evenodd"/><path d="M3295 1577 c-83 -29 -85 -31 -100 -81 -21 -69 -19 -118 5 -146 11
-13 20 -29 20 -37 0 -7 11 -13 25 -13 14 0 33 -9 43 -21 9 -11 50 -37 90 -56
39 -19 75 -39 78 -44 3 -5 30 -9 61 -9 40 0 62 6 81 20 15 12 37 29 50 38 20
15 23 26 24 94 1 62 -2 81 -17 98 -10 11 -24 20 -32 20 -7 0 -13 6 -13 14 0
15 -62 59 -100 71 -14 4 -49 21 -78 36 -55 30 -87 34 -137 16z m124 -52 c42
-19 83 -39 91 -45 8 -5 31 -19 50 -31 49 -30 68 -59 75 -115 6 -46 4 -52 -27
-86 -31 -36 -37 -38 -92 -38 -37 0 -68 6 -87 17 -35 21 -35 23 -8 57 29 37 14
76 -29 76 -36 0 -52 -16 -52 -52 0 -26 -2 -28 -20 -18 -11 6 -20 8 -20 4 0 -3
-12 7 -27 23 -16 16 -35 32 -43 35 -23 7 -19 103 5 153 19 38 42 51 89 54 10
1 53 -15 95 -34z" fill="#2f4f8c" fill-rule="evenodd"/><path d="M3550 1390 c0 -5 5 -10 10 -10 6 0 10 5 10 10 0 6 -4 10 -10 10 -5 0
-10 -4 -10 -10z" fill="#2f4f8c" fill-rule="evenodd"/><path d="M3560 1343 c0 -13 5 -23 10 -23 13 0 13 11 0 30 -8 12 -10 11 -10 -7z" fill="#2f4f8c" fill-rule="evenodd"/><path d="M2247 1563 c-11 -10 -8 -53 2 -53 14 0 41 41 35 52 -6 10 -28 11 -37
1z" fill="#2f4f8c" fill-rule="evenodd"/><path d="M2323 1533 c-14 -5 -18 -73 -5 -73 20 1 43 30 40 51 -3 24 -15 31
-35 22z" fill="#2f4f8c" fill-rule="evenodd"/><path d="M2491 1527 c-19 -24 0 -81 28 -85 40 -6 66 39 43 75 -12 20 -57 26
-71 10z" fill="#2f4f8c" fill-rule="evenodd"/><path d="M2205 1480 c-7 -11 26 -113 44 -134 8 -9 18 -16 23 -16 5 0 16 -7 24
-15 20 -19 132 -20 159 -1 11 7 31 16 45 19 30 7 98 62 88 72 -3 4 -37 -8 -75
-26 -58 -28 -79 -33 -142 -34 -71 0 -74 1 -101 34 -16 18 -32 51 -35 72 -7 38
-18 49 -30 29z" fill="#2f4f8c" fill-rule="evenodd"/><path d="M1942 1316 c1 -10 8 -17 13 -17 15 1 12 24 -3 29 -9 3 -13 -2 -10
-12z" fill="#2f4f8c" fill-rule="evenodd"/><path d="M1827 1296 c-3 -8 0 -17 8 -19 17 -7 25 1 18 19 -7 18 -19 18 -26 0z" fill="#2f4f8c" fill-rule="evenodd"/><path d="M1684 1256 c-3 -8 -4 -27 -2 -43 4 -36 34 -43 40 -10 9 46 -24 91
-38 53z" fill="#2f4f8c" fill-rule="evenodd"/><path d="M1574 1245 c-3 -8 4 -29 17 -46 l22 -32 9 24 c13 34 2 69 -23 69 -11
0 -22 -7 -25 -15z" fill="#2f4f8c" fill-rule="evenodd"/><path d="M1528 1229 c-22 -12 -23 -55 -4 -75 8 -7 16 -19 18 -26 2 -6 9 -8 15
-5 9 5 8 15 -2 34 -8 15 -11 39 -8 55 6 31 5 32 -19 17z" fill="#2f4f8c" fill-rule="evenodd"/><path d="M5184 1656 c-31 -31 -34 -32 -90 -26 -66 7 -94 3 -95 -14 0 -6 -2
-21 -5 -33 -2 -12 3 -29 12 -37 14 -15 14 -16 -2 -16 -9 0 -22 6 -28 14 -6 7
-35 17 -64 20 -42 5 -54 4 -58 -9 -3 -8 -12 -15 -19 -15 -7 0 -15 -11 -17 -25
-3 -13 -2 -22 3 -20 9 6 18 -16 12 -32 -3 -7 -27 -10 -73 -7 -69 4 -70 4 -85
-26 -19 -37 -13 -50 24 -50 29 0 68 -41 56 -59 -6 -10 18 -21 45 -21 25 0 33
16 32 57 -1 18 3 33 8 33 6 0 10 6 10 14 0 10 10 13 35 9 31 -4 37 -1 56 31
11 20 26 33 33 30 8 -3 16 2 20 11 3 10 12 15 21 11 8 -3 15 -1 15 4 0 6 7 10
15 10 9 0 27 11 41 25 14 14 39 28 54 32 26 5 29 2 35 -31 10 -48 1 -69 -25
-61 -12 4 -27 1 -35 -5 -17 -14 -20 -76 -5 -85 19 -12 10 -35 -20 -50 -16 -9
-30 -22 -30 -29 0 -7 -7 -19 -15 -26 -8 -7 -13 -16 -10 -20 8 -13 -35 -60 -56
-60 -21 0 -35 -37 -25 -68 4 -11 0 -24 -9 -32 -8 -7 -15 -21 -15 -31 0 -13 -7
-19 -24 -19 -24 0 -36 -16 -43 -57 -2 -13 -13 -44 -24 -69 -14 -33 -16 -50 -9
-59 15 -18 50 -7 76 21 12 13 27 24 33 24 7 0 28 11 47 24 30 20 33 25 19 36
-9 7 -14 19 -11 27 4 9 -3 13 -22 14 -26 0 -26 1 -4 9 12 5 22 14 22 20 0 7
15 10 38 9 46 -4 58 3 66 37 7 28 -18 57 -41 49 -18 -6 -28 16 -12 26 8 5 35
9 60 9 54 0 87 26 71 57 -5 10 -7 23 -5 30 3 7 -4 11 -16 10 -12 -1 -21 -7
-21 -14 0 -7 -7 -13 -15 -13 -22 0 -18 33 5 48 12 7 20 8 20 2 0 -27 58 8 59
35 0 6 9 11 21 13 28 5 25 22 -4 22 -14 0 -28 5 -31 10 -3 6 -18 10 -32 10
-20 0 -23 3 -14 13 6 8 8 17 4 20 -3 4 19 7 50 7 105 0 132 28 91 96 -28 46
-30 72 -6 81 39 15 43 55 6 72 -14 6 -29 9 -34 6 -5 -3 -11 -1 -15 5 -9 15
-17 11 -51 -24z" fill="#2f6e3a" fill-rule="evenodd"/><path d="M4275 1445 c-39 -17 -80 -61 -66 -70 6 -3 17 -3 24 2 6 4 38 6 70 5
50 -3 57 -1 57 16 0 10 3 22 7 26 4 3 8 13 9 21 3 19 -58 19 -101 0z" fill="#2f6e3a" fill-rule="evenodd"/><path d="M4689 1264 c-7 -8 -6 -14 1 -19 6 -4 10 -18 8 -30 -2 -13 2 -24 7
-24 6 1 9 5 7 10 -1 5 7 4 17 -3 48 -30 108 34 64 68 -21 16 -90 15 -104 -2z" fill="#2f6e3a" fill-rule="evenodd"/><path d="M4561 1166 c-27 -10 -31 -14 -18 -19 22 -8 22 -37 0 -38 -10 0 -26
-2 -36 -4 -9 -2 -24 3 -31 11 -22 22 -26 17 -26 -30 0 -62 15 -73 101 -75 97
-2 106 2 101 42 -3 28 0 33 30 45 32 12 32 13 13 28 -11 8 -19 24 -17 34 3 17
-2 20 -40 19 -24 0 -58 -6 -77 -13z" fill="#2f6e3a" fill-rule="evenodd"/><path d="M4577 956 c-12 -10 -15 -21 -11 -43 6 -32 25 -46 86 -62 29 -7 38 -6
42 5 3 8 0 14 -6 14 -6 0 -8 3 -5 7 4 3 -2 12 -12 20 -11 7 -21 26 -23 41 -2
20 -9 28 -28 29 -14 2 -33 -3 -43 -11z" fill="#2f6e3a" fill-rule="evenodd"/><path d="M4812 827 c-15 -7 -21 -21 -24 -58 -3 -54 16 -89 51 -89 23 0 65 36
56 49 -2 5 2 12 11 15 9 4 14 9 10 13 -3 3 1 14 10 24 27 29 4 54 -49 54 -25
0 -54 -3 -65 -8z" fill="#2f6e3a" fill-rule="evenodd"/></g></svg>